<?xml version="1.0" encoding="utf-8" standalone="no"?>
<!DOCTYPE svg PUBLIC "-//W3C//DTD SVG 1.1//EN"
  "http://www.w3.org/Graphics/SVG/1.1/DTD/svg11.dtd">
<svg xmlns:xlink="http://www.w3.org/1999/xlink" width="626.072812pt" height="325.101875pt" viewBox="0 0 626.072812 325.101875" xmlns="http://www.w3.org/2000/svg" version="1.1">
 <metadata>
  <rdf:RDF xmlns:dc="http://purl.org/dc/elements/1.1/" xmlns:cc="http://creativecommons.org/ns#" xmlns:rdf="http://www.w3.org/1999/02/22-rdf-syntax-ns#">
   <cc:Work>
    <dc:type rdf:resource="http://purl.org/dc/dcmitype/StillImage"/>
    <dc:date>2025-01-17T20:57:44.930810</dc:date>
    <dc:format>image/svg+xml</dc:format>
    <dc:creator>
     <cc:Agent>
      <dc:title>Matplotlib v3.8.0, https://matplotlib.org/</dc:title>
     </cc:Agent>
    </dc:creator>
   </cc:Work>
  </rdf:RDF>
 </metadata>
 <defs>
  <style type="text/css">*{stroke-linejoin: round; stroke-linecap: butt}</style>
 </defs>
 <g id="figure_1">
  <g id="patch_1">
   <path d="M 0 325.101875 
L 626.072812 325.101875 
L 626.072812 0 
L 0 0 
z
" style="fill: #ffffff"/>
  </g>
  <g id="axes_1">
   <g id="patch_2">
    <path d="M 60.872813 256.68 
L 618.872813 256.68 
L 618.872813 7.2 
L 60.872813 7.2 
z
" style="fill: #ffffff"/>
   </g>
   <g id="matplotlib.axis_1">
    <g id="xtick_1">
     <g id="line2d_1">
      <path d="M 86.236449 256.68 
L 86.236449 7.2 
" clip-path="url(#pd0ac271ea5)" style="fill: none; stroke: #b0b0b0; stroke-width: 0.8; stroke-linecap: square"/>
     </g>
     <g id="line2d_2">
      <defs>
       <path id="m92ab358932" d="M 0 0 
L 0 3.5 
" style="stroke: #000000; stroke-width: 0.8"/>
      </defs>
      <g>
       <use xlink:href="#m92ab358932" x="86.236449" y="256.68" style="stroke: #000000; stroke-width: 0.8"/>
      </g>
     </g>
     <g id="text_1">
      <!-- 0.0 -->
      <g transform="translate(65.386449 285.153437) scale(0.3 -0.3)">
       <defs>
        <path id="Arial-BoldMT-30" d="M 1756 4600 
Q 2422 4600 2797 4125 
Q 3244 3563 3244 2259 
Q 3244 959 2794 391 
Q 2422 -78 1756 -78 
Q 1088 -78 678 436 
Q 269 950 269 2269 
Q 269 3563 719 4131 
Q 1091 4600 1756 4600 
z
M 1756 3872 
Q 1597 3872 1472 3770 
Q 1347 3669 1278 3406 
Q 1188 3066 1188 2259 
Q 1188 1453 1269 1151 
Q 1350 850 1473 750 
Q 1597 650 1756 650 
Q 1916 650 2041 751 
Q 2166 853 2234 1116 
Q 2325 1453 2325 2259 
Q 2325 3066 2244 3367 
Q 2163 3669 2039 3770 
Q 1916 3872 1756 3872 
z
" transform="scale(0.015625)"/>
        <path id="Arial-BoldMT-2e" d="M 459 0 
L 459 878 
L 1338 878 
L 1338 0 
L 459 0 
z
" transform="scale(0.015625)"/>
       </defs>
       <use xlink:href="#Arial-BoldMT-30"/>
       <use xlink:href="#Arial-BoldMT-2e" x="55.615234"/>
       <use xlink:href="#Arial-BoldMT-30" x="83.398438"/>
      </g>
     </g>
    </g>
    <g id="xtick_2">
     <g id="line2d_3">
      <path d="M 213.054631 256.68 
L 213.054631 7.2 
" clip-path="url(#pd0ac271ea5)" style="fill: none; stroke: #b0b0b0; stroke-width: 0.8; stroke-linecap: square"/>
     </g>
     <g id="line2d_4">
      <g>
       <use xlink:href="#m92ab358932" x="213.054631" y="256.68" style="stroke: #000000; stroke-width: 0.8"/>
      </g>
     </g>
     <g id="text_2">
      <!-- 0.1 -->
      <g transform="translate(192.204631 285.153437) scale(0.3 -0.3)">
       <defs>
        <path id="Arial-BoldMT-31" d="M 2519 0 
L 1641 0 
L 1641 3309 
Q 1159 2859 506 2644 
L 506 3441 
Q 850 3553 1253 3867 
Q 1656 4181 1806 4600 
L 2519 4600 
L 2519 0 
z
" transform="scale(0.015625)"/>
       </defs>
       <use xlink:href="#Arial-BoldMT-30"/>
       <use xlink:href="#Arial-BoldMT-2e" x="55.615234"/>
       <use xlink:href="#Arial-BoldMT-31" x="83.398438"/>
      </g>
     </g>
    </g>
    <g id="xtick_3">
     <g id="line2d_5">
      <path d="M 339.872813 256.68 
L 339.872813 7.2 
" clip-path="url(#pd0ac271ea5)" style="fill: none; stroke: #b0b0b0; stroke-width: 0.8; stroke-linecap: square"/>
     </g>
     <g id="line2d_6">
      <g>
       <use xlink:href="#m92ab358932" x="339.872813" y="256.68" style="stroke: #000000; stroke-width: 0.8"/>
      </g>
     </g>
     <g id="text_3">
      <!-- 0.2 -->
      <g transform="translate(319.022812 285.153437) scale(0.3 -0.3)">
       <defs>
        <path id="Arial-BoldMT-32" d="M 3238 816 
L 3238 0 
L 159 0 
Q 209 463 459 877 
Q 709 1291 1447 1975 
Q 2041 2528 2175 2725 
Q 2356 2997 2356 3263 
Q 2356 3556 2198 3714 
Q 2041 3872 1763 3872 
Q 1488 3872 1325 3706 
Q 1163 3541 1138 3156 
L 263 3244 
Q 341 3969 753 4284 
Q 1166 4600 1784 4600 
Q 2463 4600 2850 4234 
Q 3238 3869 3238 3325 
Q 3238 3016 3127 2736 
Q 3016 2456 2775 2150 
Q 2616 1947 2200 1565 
Q 1784 1184 1673 1059 
Q 1563 934 1494 816 
L 3238 816 
z
" transform="scale(0.015625)"/>
       </defs>
       <use xlink:href="#Arial-BoldMT-30"/>
       <use xlink:href="#Arial-BoldMT-2e" x="55.615234"/>
       <use xlink:href="#Arial-BoldMT-32" x="83.398438"/>
      </g>
     </g>
    </g>
    <g id="xtick_4">
     <g id="line2d_7">
      <path d="M 466.690994 256.68 
L 466.690994 7.2 
" clip-path="url(#pd0ac271ea5)" style="fill: none; stroke: #b0b0b0; stroke-width: 0.8; stroke-linecap: square"/>
     </g>
     <g id="line2d_8">
      <g>
       <use xlink:href="#m92ab358932" x="466.690994" y="256.68" style="stroke: #000000; stroke-width: 0.8"/>
      </g>
     </g>
     <g id="text_4">
      <!-- 0.3 -->
      <g transform="translate(445.840994 285.153437) scale(0.3 -0.3)">
       <defs>
        <path id="Arial-BoldMT-33" d="M 241 1216 
L 1091 1319 
Q 1131 994 1309 822 
Q 1488 650 1741 650 
Q 2013 650 2198 856 
Q 2384 1063 2384 1413 
Q 2384 1744 2206 1937 
Q 2028 2131 1772 2131 
Q 1603 2131 1369 2066 
L 1466 2781 
Q 1822 2772 2009 2936 
Q 2197 3100 2197 3372 
Q 2197 3603 2059 3740 
Q 1922 3878 1694 3878 
Q 1469 3878 1309 3722 
Q 1150 3566 1116 3266 
L 306 3403 
Q 391 3819 561 4067 
Q 731 4316 1036 4458 
Q 1341 4600 1719 4600 
Q 2366 4600 2756 4188 
Q 3078 3850 3078 3425 
Q 3078 2822 2419 2463 
Q 2813 2378 3048 2084 
Q 3284 1791 3284 1375 
Q 3284 772 2843 347 
Q 2403 -78 1747 -78 
Q 1125 -78 715 280 
Q 306 638 241 1216 
z
" transform="scale(0.015625)"/>
       </defs>
       <use xlink:href="#Arial-BoldMT-30"/>
       <use xlink:href="#Arial-BoldMT-2e" x="55.615234"/>
       <use xlink:href="#Arial-BoldMT-33" x="83.398438"/>
      </g>
     </g>
    </g>
    <g id="xtick_5">
     <g id="line2d_9">
      <path d="M 593.509176 256.68 
L 593.509176 7.2 
" clip-path="url(#pd0ac271ea5)" style="fill: none; stroke: #b0b0b0; stroke-width: 0.8; stroke-linecap: square"/>
     </g>
     <g id="line2d_10">
      <g>
       <use xlink:href="#m92ab358932" x="593.509176" y="256.68" style="stroke: #000000; stroke-width: 0.8"/>
      </g>
     </g>
     <g id="text_5">
      <!-- 0.4 -->
      <g transform="translate(572.659176 285.153437) scale(0.3 -0.3)">
       <defs>
        <path id="Arial-BoldMT-34" d="M 1994 0 
L 1994 922 
L 119 922 
L 119 1691 
L 2106 4600 
L 2844 4600 
L 2844 1694 
L 3413 1694 
L 3413 922 
L 2844 922 
L 2844 0 
L 1994 0 
z
M 1994 1694 
L 1994 3259 
L 941 1694 
L 1994 1694 
z
" transform="scale(0.015625)"/>
       </defs>
       <use xlink:href="#Arial-BoldMT-30"/>
       <use xlink:href="#Arial-BoldMT-2e" x="55.615234"/>
       <use xlink:href="#Arial-BoldMT-34" x="83.398438"/>
      </g>
     </g>
    </g>
    <g id="text_6">
     <!-- Device variation $\mathbf{\sigma_d}$ -->
     <g transform="translate(223.997813 312.968281) scale(0.25 -0.25)">
      <defs>
       <path id="Arial-BoldMT-44" d="M 463 4581 
L 2153 4581 
Q 2725 4581 3025 4494 
Q 3428 4375 3715 4072 
Q 4003 3769 4153 3330 
Q 4303 2891 4303 2247 
Q 4303 1681 4163 1272 
Q 3991 772 3672 463 
Q 3431 228 3022 97 
Q 2716 0 2203 0 
L 463 0 
L 463 4581 
z
M 1388 3806 
L 1388 772 
L 2078 772 
Q 2466 772 2638 816 
Q 2863 872 3011 1006 
Q 3159 1141 3253 1448 
Q 3347 1756 3347 2288 
Q 3347 2819 3253 3103 
Q 3159 3388 2990 3547 
Q 2822 3706 2563 3763 
Q 2369 3806 1803 3806 
L 1388 3806 
z
" transform="scale(0.015625)"/>
       <path id="Arial-BoldMT-65" d="M 2381 1056 
L 3256 909 
Q 3088 428 2723 176 
Q 2359 -75 1813 -75 
Q 947 -75 531 491 
Q 203 944 203 1634 
Q 203 2459 634 2926 
Q 1066 3394 1725 3394 
Q 2466 3394 2894 2905 
Q 3322 2416 3303 1406 
L 1103 1406 
Q 1113 1016 1316 798 
Q 1519 581 1822 581 
Q 2028 581 2168 693 
Q 2309 806 2381 1056 
z
M 2431 1944 
Q 2422 2325 2234 2523 
Q 2047 2722 1778 2722 
Q 1491 2722 1303 2513 
Q 1116 2303 1119 1944 
L 2431 1944 
z
" transform="scale(0.015625)"/>
       <path id="Arial-BoldMT-76" d="M 1372 0 
L 34 3319 
L 956 3319 
L 1581 1625 
L 1763 1059 
Q 1834 1275 1853 1344 
Q 1897 1484 1947 1625 
L 2578 3319 
L 3481 3319 
L 2163 0 
L 1372 0 
z
" transform="scale(0.015625)"/>
       <path id="Arial-BoldMT-69" d="M 459 3769 
L 459 4581 
L 1338 4581 
L 1338 3769 
L 459 3769 
z
M 459 0 
L 459 3319 
L 1338 3319 
L 1338 0 
L 459 0 
z
" transform="scale(0.015625)"/>
       <path id="Arial-BoldMT-63" d="M 3353 2338 
L 2488 2181 
Q 2444 2441 2289 2572 
Q 2134 2703 1888 2703 
Q 1559 2703 1364 2476 
Q 1169 2250 1169 1719 
Q 1169 1128 1367 884 
Q 1566 641 1900 641 
Q 2150 641 2309 783 
Q 2469 925 2534 1272 
L 3397 1125 
Q 3263 531 2881 228 
Q 2500 -75 1859 -75 
Q 1131 -75 698 384 
Q 266 844 266 1656 
Q 266 2478 700 2936 
Q 1134 3394 1875 3394 
Q 2481 3394 2839 3133 
Q 3197 2872 3353 2338 
z
" transform="scale(0.015625)"/>
       <path id="Arial-BoldMT-20" transform="scale(0.015625)"/>
       <path id="Arial-BoldMT-61" d="M 1116 2306 
L 319 2450 
Q 453 2931 781 3162 
Q 1109 3394 1756 3394 
Q 2344 3394 2631 3255 
Q 2919 3116 3036 2902 
Q 3153 2688 3153 2116 
L 3144 1091 
Q 3144 653 3186 445 
Q 3228 238 3344 0 
L 2475 0 
Q 2441 88 2391 259 
Q 2369 338 2359 363 
Q 2134 144 1878 34 
Q 1622 -75 1331 -75 
Q 819 -75 523 203 
Q 228 481 228 906 
Q 228 1188 362 1408 
Q 497 1628 739 1745 
Q 981 1863 1438 1950 
Q 2053 2066 2291 2166 
L 2291 2253 
Q 2291 2506 2166 2614 
Q 2041 2722 1694 2722 
Q 1459 2722 1328 2630 
Q 1197 2538 1116 2306 
z
M 2291 1594 
Q 2122 1538 1756 1459 
Q 1391 1381 1278 1306 
Q 1106 1184 1106 997 
Q 1106 813 1243 678 
Q 1381 544 1594 544 
Q 1831 544 2047 700 
Q 2206 819 2256 991 
Q 2291 1103 2291 1419 
L 2291 1594 
z
" transform="scale(0.015625)"/>
       <path id="Arial-BoldMT-72" d="M 1300 0 
L 422 0 
L 422 3319 
L 1238 3319 
L 1238 2847 
Q 1447 3181 1614 3287 
Q 1781 3394 1994 3394 
Q 2294 3394 2572 3228 
L 2300 2463 
Q 2078 2606 1888 2606 
Q 1703 2606 1575 2504 
Q 1447 2403 1373 2137 
Q 1300 1872 1300 1025 
L 1300 0 
z
" transform="scale(0.015625)"/>
       <path id="Arial-BoldMT-74" d="M 1981 3319 
L 1981 2619 
L 1381 2619 
L 1381 1281 
Q 1381 875 1398 808 
Q 1416 741 1477 697 
Q 1538 653 1625 653 
Q 1747 653 1978 738 
L 2053 56 
Q 1747 -75 1359 -75 
Q 1122 -75 931 4 
Q 741 84 652 211 
Q 563 338 528 553 
Q 500 706 500 1172 
L 500 2619 
L 97 2619 
L 97 3319 
L 500 3319 
L 500 3978 
L 1381 4491 
L 1381 3319 
L 1981 3319 
z
" transform="scale(0.015625)"/>
       <path id="Arial-BoldMT-6f" d="M 256 1706 
Q 256 2144 472 2553 
Q 688 2963 1083 3178 
Q 1478 3394 1966 3394 
Q 2719 3394 3200 2905 
Q 3681 2416 3681 1669 
Q 3681 916 3195 420 
Q 2709 -75 1972 -75 
Q 1516 -75 1102 131 
Q 688 338 472 736 
Q 256 1134 256 1706 
z
M 1156 1659 
Q 1156 1166 1390 903 
Q 1625 641 1969 641 
Q 2313 641 2545 903 
Q 2778 1166 2778 1666 
Q 2778 2153 2545 2415 
Q 2313 2678 1969 2678 
Q 1625 2678 1390 2415 
Q 1156 2153 1156 1659 
z
" transform="scale(0.015625)"/>
       <path id="Arial-BoldMT-6e" d="M 3478 0 
L 2600 0 
L 2600 1694 
Q 2600 2231 2544 2389 
Q 2488 2547 2361 2634 
Q 2234 2722 2056 2722 
Q 1828 2722 1647 2597 
Q 1466 2472 1398 2265 
Q 1331 2059 1331 1503 
L 1331 0 
L 453 0 
L 453 3319 
L 1269 3319 
L 1269 2831 
Q 1703 3394 2363 3394 
Q 2653 3394 2893 3289 
Q 3134 3184 3257 3021 
Q 3381 2859 3429 2653 
Q 3478 2447 3478 2063 
L 3478 0 
z
" transform="scale(0.015625)"/>
       <path id="DejaVuSans-Bold-3c3" d="M 2200 2784 
Q 1831 2784 1636 2517 
Q 1441 2250 1441 1747 
Q 1441 1244 1636 976 
Q 1831 709 2200 709 
Q 2569 709 2762 976 
Q 2956 1244 2956 1747 
Q 2956 2250 2762 2517 
Q 2569 2784 2200 2784 
z
M 4650 2700 
L 3916 2700 
Q 4122 2291 4122 1747 
Q 4122 884 3614 396 
Q 3106 -91 2203 -91 
Q 1297 -91 786 396 
Q 275 884 275 1747 
Q 275 2609 788 3097 
Q 1209 3500 2203 3500 
L 4650 3500 
L 4650 2700 
z
" transform="scale(0.015625)"/>
       <path id="DejaVuSans-Bold-64" d="M 2919 2988 
L 2919 4863 
L 4044 4863 
L 4044 0 
L 2919 0 
L 2919 506 
Q 2688 197 2409 53 
Q 2131 -91 1766 -91 
Q 1119 -91 703 423 
Q 288 938 288 1747 
Q 288 2556 703 3070 
Q 1119 3584 1766 3584 
Q 2128 3584 2408 3439 
Q 2688 3294 2919 2988 
z
M 2181 722 
Q 2541 722 2730 984 
Q 2919 1247 2919 1747 
Q 2919 2247 2730 2509 
Q 2541 2772 2181 2772 
Q 1825 2772 1636 2509 
Q 1447 2247 1447 1747 
Q 1447 1247 1636 984 
Q 1825 722 2181 722 
z
" transform="scale(0.015625)"/>
      </defs>
      <use xlink:href="#Arial-BoldMT-44" transform="translate(0 0.421875)"/>
      <use xlink:href="#Arial-BoldMT-65" transform="translate(72.216797 0.421875)"/>
      <use xlink:href="#Arial-BoldMT-76" transform="translate(127.832031 0.421875)"/>
      <use xlink:href="#Arial-BoldMT-69" transform="translate(183.447266 0.421875)"/>
      <use xlink:href="#Arial-BoldMT-63" transform="translate(211.230469 0.421875)"/>
      <use xlink:href="#Arial-BoldMT-65" transform="translate(266.845703 0.421875)"/>
      <use xlink:href="#Arial-BoldMT-20" transform="translate(322.460938 0.421875)"/>
      <use xlink:href="#Arial-BoldMT-76" transform="translate(350.244141 0.421875)"/>
      <use xlink:href="#Arial-BoldMT-61" transform="translate(405.859375 0.421875)"/>
      <use xlink:href="#Arial-BoldMT-72" transform="translate(461.474609 0.421875)"/>
      <use xlink:href="#Arial-BoldMT-69" transform="translate(500.390625 0.421875)"/>
      <use xlink:href="#Arial-BoldMT-61" transform="translate(528.173828 0.421875)"/>
      <use xlink:href="#Arial-BoldMT-74" transform="translate(583.789062 0.421875)"/>
      <use xlink:href="#Arial-BoldMT-69" transform="translate(617.089844 0.421875)"/>
      <use xlink:href="#Arial-BoldMT-6f" transform="translate(644.873047 0.421875)"/>
      <use xlink:href="#Arial-BoldMT-6e" transform="translate(705.957031 0.421875)"/>
      <use xlink:href="#Arial-BoldMT-20" transform="translate(767.041016 0.421875)"/>
      <use xlink:href="#DejaVuSans-Bold-3c3" transform="translate(794.824219 0.421875)"/>
      <use xlink:href="#DejaVuSans-Bold-64" transform="translate(873.662109 -15.984375) scale(0.7)"/>
     </g>
    </g>
   </g>
   <g id="matplotlib.axis_2">
    <g id="ytick_1">
     <g id="line2d_11">
      <path d="M 60.872813 242.82 
L 618.872813 242.82 
" clip-path="url(#pd0ac271ea5)" style="fill: none; stroke: #b0b0b0; stroke-width: 0.8; stroke-linecap: square"/>
     </g>
     <g id="line2d_12">
      <defs>
       <path id="m0dfded269b" d="M 0 0 
L -3.5 0 
" style="stroke: #000000; stroke-width: 0.8"/>
      </defs>
      <g>
       <use xlink:href="#m0dfded269b" x="60.872813" y="242.82" style="stroke: #000000; stroke-width: 0.8"/>
      </g>
     </g>
     <g id="text_7">
      <!-- 0 -->
      <g transform="translate(37.19 253.556719) scale(0.3 -0.3)">
       <use xlink:href="#Arial-BoldMT-30"/>
      </g>
     </g>
    </g>
    <g id="ytick_2">
     <g id="line2d_13">
      <path d="M 60.872813 187.38 
L 618.872813 187.38 
" clip-path="url(#pd0ac271ea5)" style="fill: none; stroke: #b0b0b0; stroke-width: 0.8; stroke-linecap: square"/>
     </g>
     <g id="line2d_14">
      <g>
       <use xlink:href="#m0dfded269b" x="60.872813" y="187.38" style="stroke: #000000; stroke-width: 0.8"/>
      </g>
     </g>
     <g id="text_8">
      <!-- 2 -->
      <g transform="translate(37.19 198.116719) scale(0.3 -0.3)">
       <use xlink:href="#Arial-BoldMT-32"/>
      </g>
     </g>
    </g>
    <g id="ytick_3">
     <g id="line2d_15">
      <path d="M 60.872813 131.94 
L 618.872813 131.94 
" clip-path="url(#pd0ac271ea5)" style="fill: none; stroke: #b0b0b0; stroke-width: 0.8; stroke-linecap: square"/>
     </g>
     <g id="line2d_16">
      <g>
       <use xlink:href="#m0dfded269b" x="60.872813" y="131.94" style="stroke: #000000; stroke-width: 0.8"/>
      </g>
     </g>
     <g id="text_9">
      <!-- 4 -->
      <g transform="translate(37.19 142.676719) scale(0.3 -0.3)">
       <use xlink:href="#Arial-BoldMT-34"/>
      </g>
     </g>
    </g>
    <g id="ytick_4">
     <g id="line2d_17">
      <path d="M 60.872813 76.5 
L 618.872813 76.5 
" clip-path="url(#pd0ac271ea5)" style="fill: none; stroke: #b0b0b0; stroke-width: 0.8; stroke-linecap: square"/>
     </g>
     <g id="line2d_18">
      <g>
       <use xlink:href="#m0dfded269b" x="60.872813" y="76.5" style="stroke: #000000; stroke-width: 0.8"/>
      </g>
     </g>
     <g id="text_10">
      <!-- 6 -->
      <g transform="translate(37.19 87.236719) scale(0.3 -0.3)">
       <defs>
        <path id="Arial-BoldMT-36" d="M 3247 3459 
L 2397 3366 
Q 2366 3628 2234 3753 
Q 2103 3878 1894 3878 
Q 1616 3878 1423 3628 
Q 1231 3378 1181 2588 
Q 1509 2975 1997 2975 
Q 2547 2975 2939 2556 
Q 3331 2138 3331 1475 
Q 3331 772 2918 347 
Q 2506 -78 1859 -78 
Q 1166 -78 719 461 
Q 272 1000 272 2228 
Q 272 3488 737 4044 
Q 1203 4600 1947 4600 
Q 2469 4600 2811 4308 
Q 3153 4016 3247 3459 
z
M 1256 1544 
Q 1256 1116 1453 883 
Q 1650 650 1903 650 
Q 2147 650 2309 840 
Q 2472 1031 2472 1466 
Q 2472 1913 2297 2120 
Q 2122 2328 1859 2328 
Q 1606 2328 1431 2129 
Q 1256 1931 1256 1544 
z
" transform="scale(0.015625)"/>
       </defs>
       <use xlink:href="#Arial-BoldMT-36"/>
      </g>
     </g>
    </g>
    <g id="ytick_5">
     <g id="line2d_19">
      <path d="M 60.872813 21.06 
L 618.872813 21.06 
" clip-path="url(#pd0ac271ea5)" style="fill: none; stroke: #b0b0b0; stroke-width: 0.8; stroke-linecap: square"/>
     </g>
     <g id="line2d_20">
      <g>
       <use xlink:href="#m0dfded269b" x="60.872813" y="21.06" style="stroke: #000000; stroke-width: 0.8"/>
      </g>
     </g>
     <g id="text_11">
      <!-- 8 -->
      <g transform="translate(37.19 31.796719) scale(0.3 -0.3)">
       <defs>
        <path id="Arial-BoldMT-38" d="M 1025 2472 
Q 684 2616 529 2867 
Q 375 3119 375 3419 
Q 375 3931 733 4265 
Q 1091 4600 1750 4600 
Q 2403 4600 2764 4265 
Q 3125 3931 3125 3419 
Q 3125 3100 2959 2851 
Q 2794 2603 2494 2472 
Q 2875 2319 3073 2025 
Q 3272 1731 3272 1347 
Q 3272 713 2867 316 
Q 2463 -81 1791 -81 
Q 1166 -81 750 247 
Q 259 634 259 1309 
Q 259 1681 443 1992 
Q 628 2303 1025 2472 
z
M 1206 3356 
Q 1206 3094 1354 2947 
Q 1503 2800 1750 2800 
Q 2000 2800 2150 2948 
Q 2300 3097 2300 3359 
Q 2300 3606 2151 3754 
Q 2003 3903 1759 3903 
Q 1506 3903 1356 3753 
Q 1206 3603 1206 3356 
z
M 1125 1394 
Q 1125 1031 1311 828 
Q 1497 625 1775 625 
Q 2047 625 2225 820 
Q 2403 1016 2403 1384 
Q 2403 1706 2222 1901 
Q 2041 2097 1763 2097 
Q 1441 2097 1283 1875 
Q 1125 1653 1125 1394 
z
" transform="scale(0.015625)"/>
       </defs>
       <use xlink:href="#Arial-BoldMT-38"/>
      </g>
     </g>
    </g>
    <g id="text_12">
     <!-- EKL Divergence $\mathbf{(10^{-2})}$ -->
     <g transform="translate(28.13 262.695) rotate(-90) scale(0.23 -0.23)">
      <defs>
       <path id="Arial-BoldMT-45" d="M 466 0 
L 466 4581 
L 3863 4581 
L 3863 3806 
L 1391 3806 
L 1391 2791 
L 3691 2791 
L 3691 2019 
L 1391 2019 
L 1391 772 
L 3950 772 
L 3950 0 
L 466 0 
z
" transform="scale(0.015625)"/>
       <path id="Arial-BoldMT-4b" d="M 478 0 
L 478 4581 
L 1403 4581 
L 1403 2547 
L 3272 4581 
L 4516 4581 
L 2791 2797 
L 4609 0 
L 3413 0 
L 2153 2150 
L 1403 1384 
L 1403 0 
L 478 0 
z
" transform="scale(0.015625)"/>
       <path id="Arial-BoldMT-4c" d="M 491 0 
L 491 4544 
L 1416 4544 
L 1416 772 
L 3716 772 
L 3716 0 
L 491 0 
z
" transform="scale(0.015625)"/>
       <path id="Arial-BoldMT-67" d="M 378 -219 
L 1381 -341 
Q 1406 -516 1497 -581 
Q 1622 -675 1891 -675 
Q 2234 -675 2406 -572 
Q 2522 -503 2581 -350 
Q 2622 -241 2622 53 
L 2622 538 
Q 2228 0 1628 0 
Q 959 0 569 566 
Q 263 1013 263 1678 
Q 263 2513 664 2953 
Q 1066 3394 1663 3394 
Q 2278 3394 2678 2853 
L 2678 3319 
L 3500 3319 
L 3500 341 
Q 3500 -247 3403 -537 
Q 3306 -828 3131 -993 
Q 2956 -1159 2664 -1253 
Q 2372 -1347 1925 -1347 
Q 1081 -1347 728 -1058 
Q 375 -769 375 -325 
Q 375 -281 378 -219 
z
M 1163 1728 
Q 1163 1200 1367 954 
Q 1572 709 1872 709 
Q 2194 709 2416 961 
Q 2638 1213 2638 1706 
Q 2638 2222 2425 2472 
Q 2213 2722 1888 2722 
Q 1572 2722 1367 2476 
Q 1163 2231 1163 1728 
z
" transform="scale(0.015625)"/>
       <path id="DejaVuSans-Bold-28" d="M 2413 -844 
L 1484 -844 
Q 1006 -72 778 623 
Q 550 1319 550 2003 
Q 550 2688 779 3389 
Q 1009 4091 1484 4856 
L 2413 4856 
Q 2013 4116 1813 3408 
Q 1613 2700 1613 2009 
Q 1613 1319 1811 609 
Q 2009 -100 2413 -844 
z
" transform="scale(0.015625)"/>
       <path id="DejaVuSans-Bold-31" d="M 750 831 
L 1813 831 
L 1813 3847 
L 722 3622 
L 722 4441 
L 1806 4666 
L 2950 4666 
L 2950 831 
L 4013 831 
L 4013 0 
L 750 0 
L 750 831 
z
" transform="scale(0.015625)"/>
       <path id="DejaVuSans-Bold-30" d="M 2944 2338 
Q 2944 3213 2780 3570 
Q 2616 3928 2228 3928 
Q 1841 3928 1675 3570 
Q 1509 3213 1509 2338 
Q 1509 1453 1675 1090 
Q 1841 728 2228 728 
Q 2613 728 2778 1090 
Q 2944 1453 2944 2338 
z
M 4147 2328 
Q 4147 1169 3647 539 
Q 3147 -91 2228 -91 
Q 1306 -91 806 539 
Q 306 1169 306 2328 
Q 306 3491 806 4120 
Q 1306 4750 2228 4750 
Q 3147 4750 3647 4120 
Q 4147 3491 4147 2328 
z
" transform="scale(0.015625)"/>
       <path id="DejaVuSans-Bold-2212" d="M 678 2375 
L 4684 2375 
L 4684 1638 
L 678 1638 
L 678 2375 
z
" transform="scale(0.015625)"/>
       <path id="DejaVuSans-Bold-32" d="M 1844 884 
L 3897 884 
L 3897 0 
L 506 0 
L 506 884 
L 2209 2388 
Q 2438 2594 2547 2791 
Q 2656 2988 2656 3200 
Q 2656 3528 2436 3728 
Q 2216 3928 1850 3928 
Q 1569 3928 1234 3808 
Q 900 3688 519 3450 
L 519 4475 
Q 925 4609 1322 4679 
Q 1719 4750 2100 4750 
Q 2938 4750 3402 4381 
Q 3866 4013 3866 3353 
Q 3866 2972 3669 2642 
Q 3472 2313 2841 1759 
L 1844 884 
z
" transform="scale(0.015625)"/>
       <path id="DejaVuSans-Bold-29" d="M 513 -844 
Q 913 -100 1113 609 
Q 1313 1319 1313 2009 
Q 1313 2700 1113 3408 
Q 913 4116 513 4856 
L 1441 4856 
Q 1916 4091 2145 3389 
Q 2375 2688 2375 2003 
Q 2375 1319 2147 623 
Q 1919 -72 1441 -844 
L 513 -844 
z
" transform="scale(0.015625)"/>
      </defs>
      <use xlink:href="#Arial-BoldMT-45" transform="translate(0 0.765625)"/>
      <use xlink:href="#Arial-BoldMT-4b" transform="translate(66.699219 0.765625)"/>
      <use xlink:href="#Arial-BoldMT-4c" transform="translate(138.916016 0.765625)"/>
      <use xlink:href="#Arial-BoldMT-20" transform="translate(200 0.765625)"/>
      <use xlink:href="#Arial-BoldMT-44" transform="translate(227.783203 0.765625)"/>
      <use xlink:href="#Arial-BoldMT-69" transform="translate(300 0.765625)"/>
      <use xlink:href="#Arial-BoldMT-76" transform="translate(327.783203 0.765625)"/>
      <use xlink:href="#Arial-BoldMT-65" transform="translate(383.398438 0.765625)"/>
      <use xlink:href="#Arial-BoldMT-72" transform="translate(439.013672 0.765625)"/>
      <use xlink:href="#Arial-BoldMT-67" transform="translate(477.929688 0.765625)"/>
      <use xlink:href="#Arial-BoldMT-65" transform="translate(539.013672 0.765625)"/>
      <use xlink:href="#Arial-BoldMT-6e" transform="translate(594.628906 0.765625)"/>
      <use xlink:href="#Arial-BoldMT-63" transform="translate(655.712891 0.765625)"/>
      <use xlink:href="#Arial-BoldMT-65" transform="translate(711.328125 0.765625)"/>
      <use xlink:href="#Arial-BoldMT-20" transform="translate(766.943359 0.765625)"/>
      <use xlink:href="#DejaVuSans-Bold-28" transform="translate(794.726562 0.765625)"/>
      <use xlink:href="#DejaVuSans-Bold-31" transform="translate(840.429688 0.765625)"/>
      <use xlink:href="#DejaVuSans-Bold-30" transform="translate(910.009766 0.765625)"/>
      <use xlink:href="#DejaVuSans-Bold-2212" transform="translate(980.546875 39.046875) scale(0.7)"/>
      <use xlink:href="#DejaVuSans-Bold-32" transform="translate(1039.199219 39.046875) scale(0.7)"/>
      <use xlink:href="#DejaVuSans-Bold-29" transform="translate(1090.639648 0.765625)"/>
     </g>
    </g>
   </g>
   <g id="line2d_21">
    <path d="M 86.236449 240.8013 
L 149.64554 240.392679 
L 213.054631 237.734453 
L 276.463722 227.854725 
L 339.872813 222.827538 
L 403.281903 225.448284 
L 466.690994 237.446876 
L 530.100085 242.371595 
L 593.509176 242.700931 
" clip-path="url(#pd0ac271ea5)" style="fill: none; stroke-dasharray: 11.1,4.8; stroke-dashoffset: 0; stroke: #cccccc; stroke-width: 3"/>
   </g>
   <g id="line2d_22">
    <path d="M 86.236449 240.8013 
L 149.64554 240.406546 
L 213.054631 239.459245 
L 276.463722 234.714944 
L 339.872813 217.35376 
L 403.281903 193.849518 
L 466.690994 153.396229 
L 530.100085 100.959249 
L 593.509176 24.5051 
" clip-path="url(#pd0ac271ea5)" style="fill: none; stroke-dasharray: 11.1,4.8; stroke-dashoffset: 0; stroke: #49b1aa; stroke-width: 3"/>
    <defs>
     <path id="m4be6fed08a" d="M 0 4 
C 1.060812 4 2.078319 3.578535 2.828427 2.828427 
C 3.578535 2.078319 4 1.060812 4 0 
C 4 -1.060812 3.578535 -2.078319 2.828427 -2.828427 
C 2.078319 -3.578535 1.060812 -4 0 -4 
C -1.060812 -4 -2.078319 -3.578535 -2.828427 -2.828427 
C -3.578535 -2.078319 -4 -1.060812 -4 0 
C -4 1.060812 -3.578535 2.078319 -2.828427 2.828427 
C -2.078319 3.578535 -1.060812 4 0 4 
z
" style="stroke: #49b1aa"/>
    </defs>
    <g clip-path="url(#pd0ac271ea5)">
     <use xlink:href="#m4be6fed08a" x="86.236449" y="240.8013" style="fill: #49b1aa; stroke: #49b1aa"/>
     <use xlink:href="#m4be6fed08a" x="149.64554" y="240.406546" style="fill: #49b1aa; stroke: #49b1aa"/>
     <use xlink:href="#m4be6fed08a" x="213.054631" y="239.459245" style="fill: #49b1aa; stroke: #49b1aa"/>
     <use xlink:href="#m4be6fed08a" x="276.463722" y="234.714944" style="fill: #49b1aa; stroke: #49b1aa"/>
     <use xlink:href="#m4be6fed08a" x="339.872813" y="217.35376" style="fill: #49b1aa; stroke: #49b1aa"/>
     <use xlink:href="#m4be6fed08a" x="403.281903" y="193.849518" style="fill: #49b1aa; stroke: #49b1aa"/>
     <use xlink:href="#m4be6fed08a" x="466.690994" y="153.396229" style="fill: #49b1aa; stroke: #49b1aa"/>
     <use xlink:href="#m4be6fed08a" x="530.100085" y="100.959249" style="fill: #49b1aa; stroke: #49b1aa"/>
     <use xlink:href="#m4be6fed08a" x="593.509176" y="24.5051" style="fill: #49b1aa; stroke: #49b1aa"/>
    </g>
   </g>
   <g id="line2d_23">
    <path d="M 86.236449 240.8013 
L 149.64554 231.419398 
L 213.054631 224.929994 
L 276.463722 220.370346 
L 339.872813 212.887841 
L 403.281903 209.189596 
L 466.690994 182.901705 
L 530.100085 171.175423 
L 593.509176 162.460808 
" clip-path="url(#pd0ac271ea5)" style="fill: none; stroke-dasharray: 11.1,4.8; stroke-dashoffset: 0; stroke: #ffc000; stroke-width: 3"/>
    <defs>
     <path id="m6fd28eb548" d="M -4 4 
L 4 4 
L 4 -4 
L -4 -4 
z
" style="stroke: #ffc000; stroke-linejoin: miter"/>
    </defs>
    <g clip-path="url(#pd0ac271ea5)">
     <use xlink:href="#m6fd28eb548" x="86.236449" y="240.8013" style="fill: #ffc000; stroke: #ffc000; stroke-linejoin: miter"/>
     <use xlink:href="#m6fd28eb548" x="149.64554" y="231.419398" style="fill: #ffc000; stroke: #ffc000; stroke-linejoin: miter"/>
     <use xlink:href="#m6fd28eb548" x="213.054631" y="224.929994" style="fill: #ffc000; stroke: #ffc000; stroke-linejoin: miter"/>
     <use xlink:href="#m6fd28eb548" x="276.463722" y="220.370346" style="fill: #ffc000; stroke: #ffc000; stroke-linejoin: miter"/>
     <use xlink:href="#m6fd28eb548" x="339.872813" y="212.887841" style="fill: #ffc000; stroke: #ffc000; stroke-linejoin: miter"/>
     <use xlink:href="#m6fd28eb548" x="403.281903" y="209.189596" style="fill: #ffc000; stroke: #ffc000; stroke-linejoin: miter"/>
     <use xlink:href="#m6fd28eb548" x="466.690994" y="182.901705" style="fill: #ffc000; stroke: #ffc000; stroke-linejoin: miter"/>
     <use xlink:href="#m6fd28eb548" x="530.100085" y="171.175423" style="fill: #ffc000; stroke: #ffc000; stroke-linejoin: miter"/>
     <use xlink:href="#m6fd28eb548" x="593.509176" y="162.460808" style="fill: #ffc000; stroke: #ffc000; stroke-linejoin: miter"/>
    </g>
   </g>
   <g id="line2d_24">
    <path d="M 86.236449 242.467434 
L 149.64554 242.406025 
L 213.054631 242.346152 
L 276.463722 241.813547 
L 339.872813 240.714994 
L 403.281903 239.234266 
L 466.690994 236.230972 
L 530.100085 230.844432 
L 593.509176 228.071851 
" clip-path="url(#pd0ac271ea5)" style="fill: none; stroke: #ef4504; stroke-width: 3; stroke-linecap: square"/>
    <defs>
     <path id="m3459815ad0" d="M -0 5.656854 
L 3.394113 0 
L 0 -5.656854 
L -3.394113 -0 
z
" style="stroke: #ef4504; stroke-linejoin: miter"/>
    </defs>
    <g clip-path="url(#pd0ac271ea5)">
     <use xlink:href="#m3459815ad0" x="86.236449" y="242.467434" style="fill: #ef4504; stroke: #ef4504; stroke-linejoin: miter"/>
     <use xlink:href="#m3459815ad0" x="149.64554" y="242.406025" style="fill: #ef4504; stroke: #ef4504; stroke-linejoin: miter"/>
     <use xlink:href="#m3459815ad0" x="213.054631" y="242.346152" style="fill: #ef4504; stroke: #ef4504; stroke-linejoin: miter"/>
     <use xlink:href="#m3459815ad0" x="276.463722" y="241.813547" style="fill: #ef4504; stroke: #ef4504; stroke-linejoin: miter"/>
     <use xlink:href="#m3459815ad0" x="339.872813" y="240.714994" style="fill: #ef4504; stroke: #ef4504; stroke-linejoin: miter"/>
     <use xlink:href="#m3459815ad0" x="403.281903" y="239.234266" style="fill: #ef4504; stroke: #ef4504; stroke-linejoin: miter"/>
     <use xlink:href="#m3459815ad0" x="466.690994" y="236.230972" style="fill: #ef4504; stroke: #ef4504; stroke-linejoin: miter"/>
     <use xlink:href="#m3459815ad0" x="530.100085" y="230.844432" style="fill: #ef4504; stroke: #ef4504; stroke-linejoin: miter"/>
     <use xlink:href="#m3459815ad0" x="593.509176" y="228.071851" style="fill: #ef4504; stroke: #ef4504; stroke-linejoin: miter"/>
    </g>
   </g>
   <g id="line2d_25">
    <path d="M 86.236449 242.443613 
L 149.64554 242.468149 
L 213.054631 242.342034 
L 276.463722 241.930505 
L 339.872813 241.027338 
L 403.281903 240.178984 
L 466.690994 234.819519 
L 530.100085 232.790747 
L 593.509176 222.488692 
" clip-path="url(#pd0ac271ea5)" style="fill: none; stroke: #ac5acd; stroke-width: 3; stroke-linecap: square"/>
    <defs>
     <path id="mafde357d40" d="M 0 -4 
L -4 4 
L 4 4 
z
" style="stroke: #ac5acd; stroke-linejoin: miter"/>
    </defs>
    <g clip-path="url(#pd0ac271ea5)">
     <use xlink:href="#mafde357d40" x="86.236449" y="242.443613" style="fill: #ac5acd; stroke: #ac5acd; stroke-linejoin: miter"/>
     <use xlink:href="#mafde357d40" x="149.64554" y="242.468149" style="fill: #ac5acd; stroke: #ac5acd; stroke-linejoin: miter"/>
     <use xlink:href="#mafde357d40" x="213.054631" y="242.342034" style="fill: #ac5acd; stroke: #ac5acd; stroke-linejoin: miter"/>
     <use xlink:href="#mafde357d40" x="276.463722" y="241.930505" style="fill: #ac5acd; stroke: #ac5acd; stroke-linejoin: miter"/>
     <use xlink:href="#mafde357d40" x="339.872813" y="241.027338" style="fill: #ac5acd; stroke: #ac5acd; stroke-linejoin: miter"/>
     <use xlink:href="#mafde357d40" x="403.281903" y="240.178984" style="fill: #ac5acd; stroke: #ac5acd; stroke-linejoin: miter"/>
     <use xlink:href="#mafde357d40" x="466.690994" y="234.819519" style="fill: #ac5acd; stroke: #ac5acd; stroke-linejoin: miter"/>
     <use xlink:href="#mafde357d40" x="530.100085" y="232.790747" style="fill: #ac5acd; stroke: #ac5acd; stroke-linejoin: miter"/>
     <use xlink:href="#mafde357d40" x="593.509176" y="222.488692" style="fill: #ac5acd; stroke: #ac5acd; stroke-linejoin: miter"/>
    </g>
   </g>
   <g id="patch_3">
    <path d="M 60.872813 256.68 
L 60.872813 7.2 
" style="fill: none; stroke: #000000; stroke-width: 3; stroke-linejoin: miter; stroke-linecap: square"/>
   </g>
   <g id="patch_4">
    <path d="M 618.872813 256.68 
L 618.872813 7.2 
" style="fill: none; stroke: #000000; stroke-width: 3; stroke-linejoin: miter; stroke-linecap: square"/>
   </g>
   <g id="patch_5">
    <path d="M 60.872813 256.68 
L 618.872813 256.68 
" style="fill: none; stroke: #000000; stroke-width: 3; stroke-linejoin: miter; stroke-linecap: square"/>
   </g>
   <g id="patch_6">
    <path d="M 60.872813 7.2 
L 618.872813 7.2 
" style="fill: none; stroke: #000000; stroke-width: 3; stroke-linejoin: miter; stroke-linecap: square"/>
   </g>
   <g id="legend_1">
    <g id="patch_7">
     <path d="M 74.872813 164.5125 
L 242.229062 164.5125 
Q 246.229062 164.5125 246.229062 160.5125 
L 246.229062 21.2 
Q 246.229062 17.2 242.229062 17.2 
L 74.872813 17.2 
Q 70.872813 17.2 70.872813 21.2 
L 70.872813 160.5125 
Q 70.872813 164.5125 74.872813 164.5125 
z
" style="fill: #ffffff; opacity: 0.8; stroke: #cccccc; stroke-linejoin: miter"/>
    </g>
    <g id="line2d_26">
     <path d="M 78.872813 32.515625 
L 98.872813 32.515625 
L 118.872813 32.515625 
" style="fill: none; stroke-dasharray: 11.1,4.8; stroke-dashoffset: 0; stroke: #cccccc; stroke-width: 3"/>
    </g>
    <g id="text_13">
     <!-- W/O Noise -->
     <g transform="translate(134.872813 39.515625) scale(0.2 -0.2)">
      <defs>
       <path id="Arial-BoldMT-57" d="M 1116 0 
L 22 4581 
L 969 4581 
L 1659 1434 
L 2497 4581 
L 3597 4581 
L 4400 1381 
L 5103 4581 
L 6034 4581 
L 4922 0 
L 3941 0 
L 3028 3425 
L 2119 0 
L 1116 0 
z
" transform="scale(0.015625)"/>
       <path id="Arial-BoldMT-2f" d="M -9 -78 
L 1125 4659 
L 1784 4659 
L 638 -78 
L -9 -78 
z
" transform="scale(0.015625)"/>
       <path id="Arial-BoldMT-4f" d="M 278 2263 
Q 278 2963 488 3438 
Q 644 3788 914 4066 
Q 1184 4344 1506 4478 
Q 1934 4659 2494 4659 
Q 3506 4659 4114 4031 
Q 4722 3403 4722 2284 
Q 4722 1175 4119 548 
Q 3516 -78 2506 -78 
Q 1484 -78 881 545 
Q 278 1169 278 2263 
z
M 1231 2294 
Q 1231 1516 1590 1114 
Q 1950 713 2503 713 
Q 3056 713 3411 1111 
Q 3766 1509 3766 2306 
Q 3766 3094 3420 3481 
Q 3075 3869 2503 3869 
Q 1931 3869 1581 3476 
Q 1231 3084 1231 2294 
z
" transform="scale(0.015625)"/>
       <path id="Arial-BoldMT-4e" d="M 475 0 
L 475 4581 
L 1375 4581 
L 3250 1522 
L 3250 4581 
L 4109 4581 
L 4109 0 
L 3181 0 
L 1334 2988 
L 1334 0 
L 475 0 
z
" transform="scale(0.015625)"/>
       <path id="Arial-BoldMT-73" d="M 150 947 
L 1031 1081 
Q 1088 825 1259 692 
Q 1431 559 1741 559 
Q 2081 559 2253 684 
Q 2369 772 2369 919 
Q 2369 1019 2306 1084 
Q 2241 1147 2013 1200 
Q 950 1434 666 1628 
Q 272 1897 272 2375 
Q 272 2806 612 3100 
Q 953 3394 1669 3394 
Q 2350 3394 2681 3172 
Q 3013 2950 3138 2516 
L 2309 2363 
Q 2256 2556 2107 2659 
Q 1959 2763 1684 2763 
Q 1338 2763 1188 2666 
Q 1088 2597 1088 2488 
Q 1088 2394 1175 2328 
Q 1294 2241 1995 2081 
Q 2697 1922 2975 1691 
Q 3250 1456 3250 1038 
Q 3250 581 2869 253 
Q 2488 -75 1741 -75 
Q 1063 -75 667 200 
Q 272 475 150 947 
z
" transform="scale(0.015625)"/>
      </defs>
      <use xlink:href="#Arial-BoldMT-57"/>
      <use xlink:href="#Arial-BoldMT-2f" x="94.384766"/>
      <use xlink:href="#Arial-BoldMT-4f" x="122.167969"/>
      <use xlink:href="#Arial-BoldMT-20" x="199.951172"/>
      <use xlink:href="#Arial-BoldMT-4e" x="227.734375"/>
      <use xlink:href="#Arial-BoldMT-6f" x="299.951172"/>
      <use xlink:href="#Arial-BoldMT-69" x="361.035156"/>
      <use xlink:href="#Arial-BoldMT-73" x="388.818359"/>
      <use xlink:href="#Arial-BoldMT-65" x="444.433594"/>
     </g>
    </g>
    <g id="line2d_27">
     <path d="M 78.872813 60.778125 
L 98.872813 60.778125 
L 118.872813 60.778125 
" style="fill: none; stroke-dasharray: 11.1,4.8; stroke-dashoffset: 0; stroke: #49b1aa; stroke-width: 3"/>
     <g>
      <use xlink:href="#m4be6fed08a" x="98.872813" y="60.778125" style="fill: #49b1aa; stroke: #49b1aa"/>
     </g>
    </g>
    <g id="text_14">
     <!-- W/ Noise -->
     <g transform="translate(134.872813 67.778125) scale(0.2 -0.2)">
      <use xlink:href="#Arial-BoldMT-57"/>
      <use xlink:href="#Arial-BoldMT-2f" x="94.384766"/>
      <use xlink:href="#Arial-BoldMT-20" x="122.167969"/>
      <use xlink:href="#Arial-BoldMT-4e" x="149.951172"/>
      <use xlink:href="#Arial-BoldMT-6f" x="222.167969"/>
      <use xlink:href="#Arial-BoldMT-69" x="283.251953"/>
      <use xlink:href="#Arial-BoldMT-73" x="311.035156"/>
      <use xlink:href="#Arial-BoldMT-65" x="366.650391"/>
     </g>
    </g>
    <g id="line2d_28">
     <path d="M 78.872813 89.040625 
L 98.872813 89.040625 
L 118.872813 89.040625 
" style="fill: none; stroke-dasharray: 11.1,4.8; stroke-dashoffset: 0; stroke: #ffc000; stroke-width: 3"/>
     <g>
      <use xlink:href="#m6fd28eb548" x="98.872813" y="89.040625" style="fill: #ffc000; stroke: #ffc000; stroke-linejoin: miter"/>
     </g>
    </g>
    <g id="text_15">
     <!-- CorrectNet -->
     <g transform="translate(134.872813 96.040625) scale(0.2 -0.2)">
      <defs>
       <path id="Arial-BoldMT-43" d="M 3397 1684 
L 4294 1400 
Q 4088 650 3608 286 
Q 3128 -78 2391 -78 
Q 1478 -78 890 545 
Q 303 1169 303 2250 
Q 303 3394 893 4026 
Q 1484 4659 2447 4659 
Q 3288 4659 3813 4163 
Q 4125 3869 4281 3319 
L 3366 3100 
Q 3284 3456 3026 3662 
Q 2769 3869 2400 3869 
Q 1891 3869 1573 3503 
Q 1256 3138 1256 2319 
Q 1256 1450 1568 1081 
Q 1881 713 2381 713 
Q 2750 713 3015 947 
Q 3281 1181 3397 1684 
z
" transform="scale(0.015625)"/>
      </defs>
      <use xlink:href="#Arial-BoldMT-43"/>
      <use xlink:href="#Arial-BoldMT-6f" x="72.216797"/>
      <use xlink:href="#Arial-BoldMT-72" x="133.300781"/>
      <use xlink:href="#Arial-BoldMT-72" x="172.216797"/>
      <use xlink:href="#Arial-BoldMT-65" x="211.132812"/>
      <use xlink:href="#Arial-BoldMT-63" x="266.748047"/>
      <use xlink:href="#Arial-BoldMT-74" x="322.363281"/>
      <use xlink:href="#Arial-BoldMT-4e" x="355.664062"/>
      <use xlink:href="#Arial-BoldMT-65" x="427.880859"/>
      <use xlink:href="#Arial-BoldMT-74" x="483.496094"/>
     </g>
    </g>
    <g id="line2d_29">
     <path d="M 78.872813 117.303125 
L 98.872813 117.303125 
L 118.872813 117.303125 
" style="fill: none; stroke: #ef4504; stroke-width: 3; stroke-linecap: square"/>
     <g>
      <use xlink:href="#m3459815ad0" x="98.872813" y="117.303125" style="fill: #ef4504; stroke: #ef4504; stroke-linejoin: miter"/>
     </g>
    </g>
    <g id="text_16">
     <!-- OVF -->
     <g transform="translate(134.872813 124.303125) scale(0.2 -0.2)">
      <defs>
       <path id="Arial-BoldMT-56" d="M 1634 0 
L -3 4581 
L 1000 4581 
L 2159 1191 
L 3281 4581 
L 4263 4581 
L 2622 0 
L 1634 0 
z
" transform="scale(0.015625)"/>
       <path id="Arial-BoldMT-46" d="M 472 0 
L 472 4581 
L 3613 4581 
L 3613 3806 
L 1397 3806 
L 1397 2722 
L 3309 2722 
L 3309 1947 
L 1397 1947 
L 1397 0 
L 472 0 
z
" transform="scale(0.015625)"/>
      </defs>
      <use xlink:href="#Arial-BoldMT-4f"/>
      <use xlink:href="#Arial-BoldMT-56" x="77.783203"/>
      <use xlink:href="#Arial-BoldMT-46" x="144.482422"/>
     </g>
    </g>
    <g id="line2d_30">
     <path d="M 78.872813 145.565625 
L 98.872813 145.565625 
L 118.872813 145.565625 
" style="fill: none; stroke: #ac5acd; stroke-width: 3; stroke-linecap: square"/>
     <g>
      <use xlink:href="#mafde357d40" x="98.872813" y="145.565625" style="fill: #ac5acd; stroke: #ac5acd; stroke-linejoin: miter"/>
     </g>
    </g>
    <g id="text_17">
     <!-- IRS -->
     <g transform="translate(134.872813 152.565625) scale(0.2 -0.2)">
      <defs>
       <path id="Arial-BoldMT-49" d="M 438 0 
L 438 4581 
L 1363 4581 
L 1363 0 
L 438 0 
z
" transform="scale(0.015625)"/>
       <path id="Arial-BoldMT-52" d="M 469 0 
L 469 4581 
L 2416 4581 
Q 3150 4581 3483 4457 
Q 3816 4334 4016 4018 
Q 4216 3703 4216 3297 
Q 4216 2781 3912 2445 
Q 3609 2109 3006 2022 
Q 3306 1847 3501 1637 
Q 3697 1428 4028 894 
L 4588 0 
L 3481 0 
L 2813 997 
Q 2456 1531 2325 1670 
Q 2194 1809 2047 1861 
Q 1900 1913 1581 1913 
L 1394 1913 
L 1394 0 
L 469 0 
z
M 1394 2644 
L 2078 2644 
Q 2744 2644 2909 2700 
Q 3075 2756 3169 2893 
Q 3263 3031 3263 3238 
Q 3263 3469 3139 3611 
Q 3016 3753 2791 3791 
Q 2678 3806 2116 3806 
L 1394 3806 
L 1394 2644 
z
" transform="scale(0.015625)"/>
       <path id="Arial-BoldMT-53" d="M 231 1491 
L 1131 1578 
Q 1213 1125 1461 912 
Q 1709 700 2131 700 
Q 2578 700 2804 889 
Q 3031 1078 3031 1331 
Q 3031 1494 2936 1608 
Q 2841 1722 2603 1806 
Q 2441 1863 1863 2006 
Q 1119 2191 819 2459 
Q 397 2838 397 3381 
Q 397 3731 595 4036 
Q 794 4341 1167 4500 
Q 1541 4659 2069 4659 
Q 2931 4659 3367 4281 
Q 3803 3903 3825 3272 
L 2900 3231 
Q 2841 3584 2645 3739 
Q 2450 3894 2059 3894 
Q 1656 3894 1428 3728 
Q 1281 3622 1281 3444 
Q 1281 3281 1419 3166 
Q 1594 3019 2269 2859 
Q 2944 2700 3267 2529 
Q 3591 2359 3773 2064 
Q 3956 1769 3956 1334 
Q 3956 941 3737 597 
Q 3519 253 3119 86 
Q 2719 -81 2122 -81 
Q 1253 -81 787 320 
Q 322 722 231 1491 
z
" transform="scale(0.015625)"/>
      </defs>
      <use xlink:href="#Arial-BoldMT-49"/>
      <use xlink:href="#Arial-BoldMT-52" x="27.783203"/>
      <use xlink:href="#Arial-BoldMT-53" x="100"/>
     </g>
    </g>
   </g>
  </g>
 </g>
 <defs>
  <clipPath id="pd0ac271ea5">
   <rect x="60.872813" y="7.2" width="558" height="249.48"/>
  </clipPath>
 </defs>
</svg>
