<svg width="3754" height="2681" xmlns="http://www.w3.org/2000/svg" xmlns:xlink="http://www.w3.org/1999/xlink" xml:space="preserve" overflow="hidden"><g transform="translate(-238 197)"><g><path d="M250 641.188C250 605.738 278.738 577 314.188 577L3917.81 577C3953.26 577 3982 605.738 3982 641.188L3982 2411.81C3982 2447.26 3953.26 2476 3917.81 2476L314.188 2476C278.738 2476 250 2447.26 250 2411.81Z" stroke="#000000" stroke-width="16.0417" stroke-linecap="butt" stroke-linejoin="miter" stroke-miterlimit="8" stroke-opacity="1" fill="none" fill-rule="evenodd"/><path d="M912.5 1376.5 2022.9 1519.7" stroke="#6A8DBD" stroke-width="9.16667" stroke-linecap="butt" stroke-linejoin="miter" stroke-miterlimit="8" stroke-dasharray="36.6667 27.5" stroke-opacity="1" fill="none" fill-rule="evenodd"/><path d="M0 0 1027.67 142.571" stroke="#6A8DBD" stroke-width="9.16667" stroke-linecap="butt" stroke-linejoin="miter" stroke-miterlimit="8" stroke-dasharray="36.6667 27.5" stroke-opacity="1" fill="none" fill-rule="evenodd" transform="matrix(1 0 0 -1 2196.5 1519.07)"/><path d="M819 1537C819 1520.98 831.984 1508 848.001 1508L964 1508C980.016 1508 993 1520.98 993 1537L993 1653C993 1669.02 980.016 1682 964 1682L848.001 1682C831.984 1682 819 1669.02 819 1653Z" stroke="#6A8DBD" stroke-width="13.75" stroke-linecap="butt" stroke-linejoin="miter" stroke-miterlimit="8" stroke-opacity="1" fill="#DAE7FB" fill-rule="evenodd" fill-opacity="1"/><text fill="#6A8DBD" fill-opacity="1" font-family="Arial,Arial_MSFontService,sans-serif" font-style="italic" font-variant="normal" font-weight="700" font-stretch="normal" font-size="73" text-anchor="start" direction="ltr" writing-mode="lr-tb" unicode-bidi="normal" text-decoration="none" transform="matrix(1 0 0 1 861.35 1622)">t</text><text fill="#6A8DBD" fill-opacity="1" font-family="Arial,Arial_MSFontService,sans-serif" font-style="italic" font-variant="normal" font-weight="700" font-stretch="normal" font-size="73" text-anchor="start" direction="ltr" writing-mode="lr-tb" unicode-bidi="normal" text-decoration="none" transform="matrix(1 0 0 1 885.985 1622)">-</text><text fill="#6A8DBD" fill-opacity="1" font-family="Arial,Arial_MSFontService,sans-serif" font-style="italic" font-variant="normal" font-weight="700" font-stretch="normal" font-size="73" text-anchor="start" direction="ltr" writing-mode="lr-tb" unicode-bidi="normal" text-decoration="none" transform="matrix(1 0 0 1 910.62 1622)">1</text><path d="M2022 1537C2022 1520.98 2034.98 1508 2051 1508L2167 1508C2183.02 1508 2196 1520.98 2196 1537L2196 1653C2196 1669.02 2183.02 1682 2167 1682L2051 1682C2034.98 1682 2022 1669.02 2022 1653Z" stroke="#6A8DBD" stroke-width="13.75" stroke-linecap="butt" stroke-linejoin="miter" stroke-miterlimit="8" stroke-opacity="1" fill="#DAE7FB" fill-rule="evenodd" fill-opacity="1"/><text fill="#6A8DBD" fill-opacity="1" font-family="Arial,Arial_MSFontService,sans-serif" font-style="italic" font-variant="normal" font-weight="700" font-stretch="normal" font-size="73" text-anchor="start" direction="ltr" writing-mode="lr-tb" unicode-bidi="normal" text-decoration="none" transform="matrix(1 0 0 1 2096.78 1622)">t</text><path d="M3225 1537C3225 1520.98 3237.98 1508 3254 1508L3370 1508C3386.02 1508 3399 1520.98 3399 1537L3399 1653C3399 1669.02 3386.02 1682 3370 1682L3254 1682C3237.98 1682 3225 1669.02 3225 1653Z" stroke="#6A8DBD" stroke-width="13.75" stroke-linecap="butt" stroke-linejoin="miter" stroke-miterlimit="8" stroke-opacity="1" fill="#DAE7FB" fill-rule="evenodd" fill-opacity="1"/><path d="M1162 1586.98 1780.38 1586.98 1780.38 1603.02 1162 1603.02ZM1772.36 1570.94 1852.57 1595 1772.36 1619.06Z" fill="#6A8DBD" fill-rule="nonzero" fill-opacity="1"/><path d="M2365 1586.98 2983.38 1586.98 2983.38 1603.02 2365 1603.02ZM2975.36 1570.94 3055.57 1595 2975.36 1619.06Z" fill="#6A8DBD" fill-rule="nonzero" fill-opacity="1"/><path d="M342 1586.98 578.265 1586.98 578.265 1603.02 342 1603.02ZM570.245 1570.94 650.453 1595 570.245 1619.06Z" fill="#6A8DBD" fill-rule="nonzero" fill-opacity="1"/><path d="M3568 1586.98 3804.27 1586.98 3804.27 1603.02 3568 1603.02ZM3796.24 1570.94 3876.45 1595 3796.24 1619.06Z" fill="#6A8DBD" fill-rule="nonzero" fill-opacity="1"/><text fill="#6A8DBD" fill-opacity="1" font-family="Arial,Arial_MSFontService,sans-serif" font-style="italic" font-variant="normal" font-weight="700" font-stretch="normal" font-size="73" text-anchor="start" direction="ltr" writing-mode="lr-tb" unicode-bidi="normal" text-decoration="none" transform="matrix(1 0 0 1 3257.73 1619)">t+1</text><path d="M2019 1754C2019 1737.98 2031.98 1725 2048 1725L2165 1725C2181.02 1725 2194 1737.98 2194 1754L2194 1870C2194 1886.02 2181.02 1899 2165 1899L2048 1899C2031.98 1899 2019 1886.02 2019 1870Z" stroke="#D5B353" stroke-width="13.75" stroke-linecap="butt" stroke-linejoin="miter" stroke-miterlimit="8" stroke-opacity="1" fill="#FCF1CC" fill-rule="evenodd" fill-opacity="1"/><text fill="#D5B353" fill-opacity="1" font-family="Arial,Arial_MSFontService,sans-serif" font-style="italic" font-variant="normal" font-weight="700" font-stretch="normal" font-size="73" text-anchor="start" direction="ltr" writing-mode="lr-tb" unicode-bidi="normal" text-decoration="none" transform="matrix(1 0 0 1 2061.51 1839)">Inf</text><path d="M342 1803.98 1810.51 1803.98 1810.51 1820.02 342 1820.02ZM1802.49 1787.94 1850.62 1812 1802.49 1836.06Z" fill="#D5B353" fill-rule="nonzero" fill-opacity="1"/><path d="M2363 1803.98 3836.74 1803.98 3836.74 1820.02 2363 1820.02ZM3828.72 1787.94 3876.84 1812 3828.72 1836.06Z" fill="#D5B353" fill-rule="nonzero" fill-opacity="1"/><path d="M825.5 2093.17C825.5 2055.8 855.796 2025.5 893.167 2025.5L3301.83 2025.5C3339.2 2025.5 3369.5 2055.8 3369.5 2093.17L3369.5 2363.83C3369.5 2401.2 3339.2 2431.5 3301.83 2431.5L893.167 2431.5C855.796 2431.5 825.5 2401.2 825.5 2363.83Z" stroke="#D5B353" stroke-width="9.16667" stroke-linecap="butt" stroke-linejoin="miter" stroke-miterlimit="8" stroke-dasharray="36.6667 27.5" stroke-opacity="1" fill="#FCF1CC" fill-rule="evenodd" fill-opacity="1"/><path d="M1864 2138.67C1864 2113.45 1884.45 2093 1909.67 2093L2414.33 2093C2439.55 2093 2460 2113.45 2460 2138.67L2460 2321.33C2460 2346.55 2439.55 2367 2414.33 2367L1909.67 2367C1884.45 2367 1864 2346.55 1864 2321.33Z" stroke="#000000" stroke-width="10.3125" stroke-linecap="butt" stroke-linejoin="miter" stroke-miterlimit="8" stroke-opacity="1" fill="#000000" fill-rule="evenodd" fill-opacity="1"/><text fill="#FFFFFF" fill-opacity="1" font-family="Arial,Arial_MSFontService,sans-serif" font-style="normal" font-variant="normal" font-weight="700" font-stretch="normal" font-size="92" text-anchor="start" direction="ltr" writing-mode="lr-tb" unicode-bidi="normal" text-decoration="none" transform="matrix(1 0 0 1 1942.35 2209)">Backbone</text><text fill="#FFFFFF" fill-opacity="1" font-family="Arial,Arial_MSFontService,sans-serif" font-style="normal" font-variant="normal" font-weight="700" font-stretch="normal" font-size="92" text-anchor="start" direction="ltr" writing-mode="lr-tb" unicode-bidi="normal" text-decoration="none" transform="matrix(1 0 0 1 2009.95 2319)">Weight</text><path d="M2497 2219.98 2969.84 2219.98 2969.84 2236.02 2497 2236.02ZM2961.82 2203.94 3042.02 2228 2961.82 2252.06Z" fill="#000000" fill-rule="nonzero" fill-opacity="1"/><text fill="#000000" fill-opacity="1" font-family="Arial,Arial_MSFontService,sans-serif" font-style="normal" font-variant="normal" font-weight="700" font-stretch="normal" font-size="92" text-anchor="start" direction="ltr" writing-mode="lr-tb" unicode-bidi="normal" text-decoration="none" transform="matrix(1 0 0 1 2880.32 2167)">Output</text><path d="M1260 2219.98 1732.84 2219.98 1732.84 2236.02 1260 2236.02ZM1724.82 2203.94 1805.02 2228 1724.82 2252.06Z" fill="#000000" fill-rule="nonzero" fill-opacity="1"/><text fill="#000000" fill-opacity="1" font-family="Arial,Arial_MSFontService,sans-serif" font-style="normal" font-variant="normal" font-weight="700" font-stretch="normal" font-size="92" text-anchor="start" direction="ltr" writing-mode="lr-tb" unicode-bidi="normal" text-decoration="none" transform="matrix(1 0 0 1 985.032 2157)">Testing</text><text fill="#000000" fill-opacity="1" font-family="Arial,Arial_MSFontService,sans-serif" font-style="normal" font-variant="normal" font-weight="700" font-stretch="normal" font-size="92" text-anchor="start" direction="ltr" writing-mode="lr-tb" unicode-bidi="normal" text-decoration="none" transform="matrix(1 0 0 1 1304.15 2157)"> </text><text fill="#000000" fill-opacity="1" font-family="Arial,Arial_MSFontService,sans-serif" font-style="normal" font-variant="normal" font-weight="700" font-stretch="normal" font-size="92" text-anchor="start" direction="ltr" writing-mode="lr-tb" unicode-bidi="normal" text-decoration="none" transform="matrix(1 0 0 1 1329.36 2157)">Data</text><path d="M0 0 1119.95 116.173" stroke="#D5B353" stroke-width="9.16667" stroke-linecap="butt" stroke-linejoin="miter" stroke-miterlimit="8" stroke-dasharray="36.6667 27.5" stroke-opacity="1" fill="none" fill-rule="evenodd" transform="matrix(1 0 0 -1 902.5 2015.67)"/><path d="M2194.5 1899.5 3269.5 2015.67" stroke="#D5B353" stroke-width="9.16667" stroke-linecap="butt" stroke-linejoin="miter" stroke-miterlimit="8" stroke-dasharray="36.6667 27.5" stroke-opacity="1" fill="none" fill-rule="evenodd"/><text fill="#6A8DBD" fill-opacity="1" font-family="Arial,Arial_MSFontService,sans-serif" font-style="normal" font-variant="normal" font-weight="700" font-stretch="normal" font-size="110" text-anchor="start" direction="ltr" writing-mode="lr-tb" unicode-bidi="normal" text-decoration="none" transform="matrix(1 0 0 1 330.153 1531)">Training</text><text fill="#D5B353" fill-opacity="1" font-family="Arial,Arial_MSFontService,sans-serif" font-style="normal" font-variant="normal" font-weight="700" font-stretch="normal" font-size="110" text-anchor="start" direction="ltr" writing-mode="lr-tb" unicode-bidi="normal" text-decoration="none" transform="matrix(1 0 0 1 330.153 1975)">Inference</text><text fill="#000000" fill-opacity="1" font-family="Arial,Arial_MSFontService,sans-serif" font-style="normal" font-variant="normal" font-weight="700" font-stretch="normal" font-size="92" text-anchor="start" direction="ltr" writing-mode="lr-tb" unicode-bidi="normal" text-decoration="none" transform="matrix(1 0 0 1 307.497 709)">(b)</text><path d="M250-135.183C250-164.905 274.095-189 303.817-189L3928.18-189C3957.91-189 3982-164.905 3982-135.183L3982 474.183C3982 503.905 3957.91 528 3928.18 528L303.817 528C274.095 528 250 503.905 250 474.183Z" stroke="#000000" stroke-width="16.0417" stroke-linecap="butt" stroke-linejoin="miter" stroke-miterlimit="8" stroke-opacity="1" fill="none" fill-rule="evenodd"/><path d="M1025 265.667C1025 240.446 1045.45 220 1070.67 220L1574.33 220C1599.55 220 1620 240.446 1620 265.667L1620 448.333C1620 473.554 1599.55 494 1574.33 494L1070.67 494C1045.45 494 1025 473.554 1025 448.333Z" stroke="#000000" stroke-width="10.3125" stroke-linecap="butt" stroke-linejoin="miter" stroke-miterlimit="8" stroke-opacity="1" fill="#000000" fill-rule="evenodd" fill-opacity="1"/><text fill="#FFFFFF" fill-opacity="1" font-family="Arial,Arial_MSFontService,sans-serif" font-style="normal" font-variant="normal" font-weight="700" font-stretch="normal" font-size="110" text-anchor="start" direction="ltr" writing-mode="lr-tb" unicode-bidi="normal" text-decoration="none" transform="matrix(1 0 0 1 1126.43 398)">System</text><path d="M653.5 352.5C653.5 310.526 687.526 276.5 729.5 276.5 771.474 276.5 805.5 310.526 805.5 352.5 805.5 394.474 771.474 428.5 729.5 428.5 687.526 428.5 653.5 394.474 653.5 352.5Z" stroke="#000000" stroke-width="4.58333" stroke-linecap="butt" stroke-linejoin="miter" stroke-miterlimit="8" stroke-opacity="1" fill="#000000" fill-rule="evenodd" fill-opacity="1"/><text fill="#FFFFFF" fill-opacity="1" font-family="Arial,Arial_MSFontService,sans-serif" font-style="normal" font-variant="normal" font-weight="400" font-stretch="normal" font-size="183" text-anchor="start" direction="ltr" writing-mode="lr-tb" unicode-bidi="normal" text-decoration="none" transform="matrix(1 0 0 1 675.639 420)">+</text><path d="M822 343.979 928.088 343.979 928.088 360.021 822 360.021ZM920.067 327.938 1000.28 352 920.067 376.063Z" fill="#000000" fill-rule="nonzero" fill-opacity="1"/><path d="M1658 343.979 2130.84 343.979 2130.84 360.021 1658 360.021ZM2122.82 327.938 2203.02 352 2122.82 376.063Z" fill="#000000" fill-rule="nonzero" fill-opacity="1"/><path d="M0 0 0.000360892 349.835" stroke="#000000" stroke-width="16.0417" stroke-linecap="butt" stroke-linejoin="miter" stroke-miterlimit="8" stroke-opacity="1" fill="none" fill-rule="evenodd" transform="matrix(1 0 0 -1 1852 330.835)"/><path d="M1806.5-63.9999C1831.63-63.9999 1852-43.6289 1852-18.4999" stroke="#000000" stroke-width="16.0417" stroke-linecap="butt" stroke-linejoin="miter" stroke-miterlimit="8" stroke-opacity="1" fill="none" fill-rule="evenodd"/><path d="M1806.07-65.5323 1548-68.0001" stroke="#000000" stroke-width="16.0417" stroke-linecap="butt" stroke-linejoin="miter" stroke-miterlimit="8" stroke-opacity="1" fill="none" fill-rule="evenodd"/><path d="M729-16C729-41.405 749.595-61.9999 775-61.9999" stroke="#000000" stroke-width="16.0417" stroke-linecap="butt" stroke-linejoin="miter" stroke-miterlimit="8" stroke-opacity="1" fill="none" fill-rule="evenodd"/><path d="M8.02093 72.1875 8.02119 259.395-8.02047 259.395-8.02073 72.1875ZM-24.0624 80.2084 0 0 24.0626 80.2083Z" fill="#000000" fill-rule="nonzero" fill-opacity="1" transform="matrix(1 0 0 -1 729 240.395)"/><path d="M354 343.979 562.662 343.979 562.662 360.021 354 360.021ZM554.641 327.938 634.849 352 554.641 376.063Z" fill="#000000" fill-rule="nonzero" fill-opacity="1"/><text fill="#000000" fill-opacity="1" font-family="Cambria Math,Cambria Math_MSFontService,sans-serif" font-style="normal" font-variant="normal" font-weight="400" font-stretch="normal" font-size="92" text-anchor="start" direction="ltr" writing-mode="lr-tb" unicode-bidi="normal" text-decoration="none" transform="matrix(1 0 0 1 565.787 73)">âˆ’</text><text fill="#000000" fill-opacity="1" font-family="Cambria Math,Cambria Math_MSFontService,sans-serif" font-style="normal" font-variant="normal" font-weight="400" font-stretch="normal" font-size="92" text-anchor="start" direction="ltr" writing-mode="lr-tb" unicode-bidi="normal" text-decoration="none" transform="matrix(1 0 0 1 634.537 73)">ğœ·</text><path d="M2484 209.979 3680.77 209.979 3680.77 226.021 2484 226.021ZM3672.75 193.938 3720.87 218 3672.75 242.063Z" fill="#000000" fill-rule="nonzero" fill-opacity="1"/><path d="M8.02083-5.17066e-06 8.02117 519.719-8.0205 519.719-8.02083 5.17066e-06ZM24.0628 511.698 0.000360892 559.823-24.0622 511.698Z" fill="#000000" fill-rule="nonzero" fill-opacity="1" transform="matrix(1 0 0 -1 2558 491.823)"/><text fill="#000000" fill-opacity="1" font-family="Arial,Arial_MSFontService,sans-serif" font-style="normal" font-variant="normal" font-weight="700" font-stretch="normal" font-size="92" text-anchor="start" direction="ltr" writing-mode="lr-tb" unicode-bidi="normal" text-decoration="none" transform="matrix(1 0 0 1 3549.83 346)">Time</text><text fill="#000000" fill-opacity="1" font-family="Arial,Arial_MSFontService,sans-serif" font-style="normal" font-variant="normal" font-weight="700" font-stretch="normal" font-size="92" text-anchor="start" direction="ltr" writing-mode="lr-tb" unicode-bidi="normal" text-decoration="none" transform="matrix(1 0 0 1 2585.95 -67)">Out</text><text fill="#000000" fill-opacity="1" font-family="Arial,Arial_MSFontService,sans-serif" font-style="normal" font-variant="normal" font-weight="700" font-stretch="normal" font-size="92" text-anchor="start" direction="ltr" writing-mode="lr-tb" unicode-bidi="normal" text-decoration="none" transform="matrix(1 0 0 1 2014.24 324)">Out</text><text fill="#000000" fill-opacity="1" font-family="Arial,Arial_MSFontService,sans-serif" font-style="normal" font-variant="normal" font-weight="700" font-stretch="normal" font-size="92" text-anchor="start" direction="ltr" writing-mode="lr-tb" unicode-bidi="normal" text-decoration="none" transform="matrix(1 0 0 1 357.768 324)">In</text><path d="M1103-128.666C1103-145.419 1116.58-159 1133.33-159L1500.67-159C1517.42-159 1531-145.419 1531-128.666L1531-7.33396C1531 9.41903 1517.42 23 1500.67 23L1133.33 23C1116.58 23 1103 9.41903 1103-7.33396Z" stroke="#000000" stroke-width="10.3125" stroke-linecap="butt" stroke-linejoin="miter" stroke-miterlimit="8" stroke-opacity="1" fill="#000000" fill-rule="evenodd" fill-opacity="1"/><text fill="#FFFFFF" fill-opacity="1" font-family="Arial,Arial_MSFontService,sans-serif" font-style="normal" font-variant="normal" font-weight="700" font-stretch="normal" font-size="83" text-anchor="start" direction="ltr" writing-mode="lr-tb" unicode-bidi="normal" text-decoration="none" transform="matrix(1 0 0 1 1130.47 -38)">Feedback</text><path d="M0 0 304.847 0.000360892" stroke="#000000" stroke-width="16.0417" stroke-linecap="butt" stroke-linejoin="miter" stroke-miterlimit="8" stroke-opacity="1" fill="none" fill-rule="evenodd" transform="matrix(-1 0 0 1 1079.85 -61.9999)"/><text fill="#000000" fill-opacity="1" font-family="Arial,Arial_MSFontService,sans-serif" font-style="normal" font-variant="normal" font-weight="700" font-stretch="normal" font-size="92" text-anchor="start" direction="ltr" writing-mode="lr-tb" unicode-bidi="normal" text-decoration="none" transform="matrix(1 0 0 1 307.497 -67)">(a)</text><path d="M2558 218 2680.84 218" stroke="#4472C4" stroke-width="16.0417" stroke-linecap="butt" stroke-linejoin="miter" stroke-miterlimit="8" stroke-opacity="0.698039" fill="none" fill-rule="evenodd"/><path d="M3333 182 3455.84 182" stroke="#4472C4" stroke-width="16.0417" stroke-linecap="butt" stroke-linejoin="miter" stroke-miterlimit="8" stroke-opacity="0.698039" fill="none" fill-rule="evenodd"/><path d="M2680 217.764C2707.33 217.596 2734.67 217.428 2752.44 179.555 2770.22 141.681 2775.92-49.6975 2786.65-9.47782 2797.38 30.7419 2804.43 412.83 2816.84 420.874 2829.25 428.917 2844.67 51.1871 2861.11 38.786 2877.54 26.3849 2900.01 339.429 2915.44 346.467 2930.87 353.506 2940.59 86.7141 2953.67 81.0165 2966.75 75.3185 2980.5 305.577 2993.92 312.28 3007.34 318.984 3024.78 126.264 3034.17 121.237 3043.56 116.209 3038.86 276.082 3050.26 282.115 3061.67 288.148 3086.82 161.791 3102.58 157.434 3118.35 153.077 3126.4 254.297 3144.84 255.972 3163.29 257.648 3195.15 175.868 3213.26 167.489 3231.37 159.11 3239.76 202.346 3253.51 205.698 3267.26 209.05 3282.35 191.621 3295.77 187.599 3309.18 183.577 3321.59 182.572 3334 181.566" stroke="#4472C4" stroke-width="16.0417" stroke-linecap="butt" stroke-linejoin="miter" stroke-miterlimit="8" stroke-opacity="0.698039" fill="none" fill-rule="evenodd"/><text fill="#6A8DBD" fill-opacity="1" font-family="Arial,Arial_MSFontService,sans-serif" font-style="normal" font-variant="normal" font-weight="700" font-stretch="normal" font-size="73" text-anchor="start" direction="ltr" writing-mode="lr-tb" unicode-bidi="normal" text-decoration="none" transform="matrix(1 0 0 1 3345.64 -21)">New E</text><text fill="#6A8DBD" fill-opacity="1" font-family="Arial,Arial_MSFontService,sans-serif" font-style="normal" font-variant="normal" font-weight="700" font-stretch="normal" font-size="73" text-anchor="start" direction="ltr" writing-mode="lr-tb" unicode-bidi="normal" text-decoration="none" transform="matrix(1 0 0 1 3565.64 -21)">quilibrium </text><text fill="#6A8DBD" fill-opacity="1" font-family="Arial,Arial_MSFontService,sans-serif" font-style="normal" font-variant="normal" font-weight="700" font-stretch="normal" font-size="73" text-anchor="start" direction="ltr" writing-mode="lr-tb" unicode-bidi="normal" text-decoration="none" transform="matrix(1 0 0 1 3553.91 67)">State</text><path d="M3447.12 100.764 3457.1 107.157 3486.91 60.6404 3506.86 73.4258 3477.05 119.942 3487.03 126.335 3454.29 133.501Z" stroke="#6A8DBD" stroke-width="4.58333" stroke-linecap="butt" stroke-linejoin="miter" stroke-miterlimit="8" stroke-opacity="1" fill="#6A8DBD" fill-rule="evenodd" fill-opacity="1"/><path d="M795.5 738.336C795.5 668.286 852.286 611.5 922.335 611.5L3212.66 611.5C3282.71 611.5 3339.5 668.286 3339.5 738.336L3339.5 1245.66C3339.5 1315.71 3282.71 1372.5 3212.66 1372.5L922.335 1372.5C852.286 1372.5 795.5 1315.71 795.5 1245.66Z" stroke="#6A8DBD" stroke-width="9.16667" stroke-linecap="butt" stroke-linejoin="miter" stroke-miterlimit="8" stroke-dasharray="36.6667 27.5" stroke-opacity="1" fill="#DAE7FB" fill-rule="evenodd" fill-opacity="1"/><path d="M1759 1151.5C1759 1131.34 1775.34 1115 1795.5 1115L2318.5 1115C2338.66 1115 2355 1131.34 2355 1151.5L2355 1297.5C2355 1317.66 2338.66 1334 2318.5 1334L1795.5 1334C1775.34 1334 1759 1317.66 1759 1297.5Z" stroke="#000000" stroke-width="10.3125" stroke-linecap="butt" stroke-linejoin="miter" stroke-miterlimit="8" stroke-opacity="1" fill="#000000" fill-rule="evenodd" fill-opacity="1"/><text fill="#FFFFFF" fill-opacity="1" font-family="Arial,Arial_MSFontService,sans-serif" font-style="normal" font-variant="normal" font-weight="700" font-stretch="normal" font-size="83" text-anchor="start" direction="ltr" writing-mode="lr-tb" unicode-bidi="normal" text-decoration="none" transform="matrix(1 0 0 1 1859.97 1200)">Backbone</text><text fill="#FFFFFF" fill-opacity="1" font-family="Arial,Arial_MSFontService,sans-serif" font-style="normal" font-variant="normal" font-weight="700" font-stretch="normal" font-size="83" text-anchor="start" direction="ltr" writing-mode="lr-tb" unicode-bidi="normal" text-decoration="none" transform="matrix(1 0 0 1 1895.49 1308)">Weight</text><text fill="#FFFFFF" fill-opacity="1" font-family="Arial,Arial_MSFontService,sans-serif" font-style="normal" font-variant="normal" font-weight="700" font-stretch="normal" font-size="92" text-anchor="start" direction="ltr" writing-mode="lr-tb" unicode-bidi="normal" text-decoration="none" transform="matrix(1 0 0 1 2168.77 1308)"> </text><text fill="#FFFFFF" fill-opacity="1" font-family="Arial,Arial_MSFontService,sans-serif" font-style="italic" font-variant="normal" font-weight="700" font-stretch="normal" font-size="73" text-anchor="start" direction="ltr" writing-mode="lr-tb" unicode-bidi="normal" text-decoration="none" transform="matrix(1 0 0 1 2193.98 1335)">t</text><text fill="#000000" fill-opacity="1" font-family="Arial,Arial_MSFontService,sans-serif" font-style="normal" font-variant="normal" font-weight="700" font-stretch="normal" font-size="92" text-anchor="start" direction="ltr" writing-mode="lr-tb" unicode-bidi="normal" text-decoration="none" transform="matrix(1 0 0 1 2762.29 1172)">Output</text><path d="M1113 1213.98 1652.21 1213.98 1652.21 1230.02 1113 1230.02ZM1644.19 1197.94 1724.4 1222 1644.19 1246.06Z" fill="#000000" fill-rule="nonzero" fill-opacity="1"/><path d="M2026.5 715.5C2026.5 673.526 2060.3 639.5 2102 639.5 2143.7 639.5 2177.5 673.526 2177.5 715.5 2177.5 757.474 2143.7 791.5 2102 791.5 2060.3 791.5 2026.5 757.474 2026.5 715.5Z" stroke="#000000" stroke-width="4.58333" stroke-linecap="butt" stroke-linejoin="miter" stroke-miterlimit="8" stroke-opacity="1" fill="#000000" fill-rule="evenodd" fill-opacity="1"/><text fill="#FFFFFF" fill-opacity="1" font-family="Arial,Arial_MSFontService,sans-serif" font-style="normal" font-variant="normal" font-weight="400" font-stretch="normal" font-size="183" text-anchor="start" direction="ltr" writing-mode="lr-tb" unicode-bidi="normal" text-decoration="none" transform="matrix(1 0 0 1 2047.81 783)">+</text><path d="M1651.5 680.833C1651.5 670.156 1660.16 661.5 1670.83 661.5L1870.17 661.5C1880.84 661.5 1889.5 670.156 1889.5 680.833L1889.5 758.166C1889.5 768.844 1880.84 777.5 1870.17 777.5L1670.83 777.5C1660.16 777.5 1651.5 768.844 1651.5 758.166Z" stroke="#000000" stroke-width="4.58333" stroke-linecap="butt" stroke-linejoin="miter" stroke-miterlimit="8" stroke-opacity="1" fill="#000000" fill-rule="evenodd" fill-opacity="1"/><text fill="#FFFFFF" fill-opacity="1" font-family="Arial,Arial_MSFontService,sans-serif" font-style="normal" font-variant="normal" font-weight="700" font-stretch="normal" font-size="64" text-anchor="start" direction="ltr" writing-mode="lr-tb" unicode-bidi="normal" text-decoration="none" transform="matrix(1 0 0 1 1695.59 743)">Loss</text><path d="M8.02083-1.1375e-05 8.02109 182.289-8.02057 182.289-8.02083 1.1375e-05ZM24.0627 174.268 0.000360892 254.476-24.0623 174.268Z" fill="#000000" fill-rule="nonzero" fill-opacity="1" transform="matrix(1 0 0 -1 2104 1086.48)"/><path d="M0 0 0.000360892 437.579" stroke="#000000" stroke-width="16.0417" stroke-linecap="butt" stroke-linejoin="miter" stroke-miterlimit="8" stroke-opacity="1" fill="none" fill-rule="evenodd" transform="matrix(1 0 0 -1 2585 1192.58)"/><path d="M2540 711C2565.41 711 2586 731.371 2586 756.5" stroke="#000000" stroke-width="16.0417" stroke-linecap="butt" stroke-linejoin="miter" stroke-miterlimit="8" stroke-opacity="1" fill="none" fill-rule="evenodd"/><path d="M0 0 327.005 0.000360892" stroke="#000000" stroke-width="16.0417" stroke-linecap="butt" stroke-linejoin="miter" stroke-miterlimit="8" stroke-opacity="1" fill="none" fill-rule="evenodd" transform="matrix(-1 0 0 1 2546 711)"/><text fill="#000000" fill-opacity="1" font-family="Arial,Arial_MSFontService,sans-serif" font-style="normal" font-variant="normal" font-weight="700" font-stretch="normal" font-size="92" text-anchor="start" direction="ltr" writing-mode="lr-tb" unicode-bidi="normal" text-decoration="none" transform="matrix(1 0 0 1 2137.44 1079)">Out </text><text fill="#000000" fill-opacity="1" font-family="Arial,Arial_MSFontService,sans-serif" font-style="italic" font-variant="normal" font-weight="700" font-stretch="normal" font-size="61" text-anchor="start" direction="ltr" writing-mode="lr-tb" unicode-bidi="normal" text-decoration="none" transform="matrix(1 0 0 1 2320.2 1101)">n</text><text fill="#000000" fill-opacity="1" font-family="Cambria Math,Cambria Math_MSFontService,sans-serif" font-style="normal" font-variant="normal" font-weight="400" font-stretch="normal" font-size="92" text-anchor="start" direction="ltr" writing-mode="lr-tb" unicode-bidi="normal" text-decoration="none" transform="matrix(1 0 0 1 2141.68 886)">âˆ’</text><text fill="#000000" fill-opacity="1" font-family="Cambria Math,Cambria Math_MSFontService,sans-serif" font-style="normal" font-variant="normal" font-weight="400" font-stretch="normal" font-size="92" text-anchor="start" direction="ltr" writing-mode="lr-tb" unicode-bidi="normal" text-decoration="none" transform="matrix(1 0 0 1 2210.43 886)">ğœ·</text><text fill="#000000" fill-opacity="1" font-family="Arial,Arial_MSFontService,sans-serif" font-style="normal" font-variant="normal" font-weight="700" font-stretch="normal" font-size="73" text-anchor="start" direction="ltr" writing-mode="lr-tb" unicode-bidi="normal" text-decoration="none" transform="matrix(1 0 0 1 1464.87 942)">Update</text><text fill="#000000" fill-opacity="1" font-family="Arial,Arial_MSFontService,sans-serif" font-style="normal" font-variant="normal" font-weight="700" font-stretch="normal" font-size="92" text-anchor="start" direction="ltr" writing-mode="lr-tb" unicode-bidi="normal" text-decoration="none" transform="matrix(1 0 0 1 1052.54 1178)">Input</text><path d="M1778.02 803 1778.02 851.125 1761.98 851.125 1761.98 803ZM1778.02 867.167 1778.02 915.292 1761.98 915.292 1761.98 867.167ZM1778.02 931.333 1778.02 979.458 1761.98 979.458 1761.98 931.333ZM1778.02 995.5 1778.02 1015.08 1761.98 1015.08 1761.98 995.5ZM1794.06 1007.06 1770 1087.26 1745.94 1007.06Z" fill="#000000" fill-rule="nonzero" fill-opacity="1"/><path d="M2.95242e-05-8.02083 57.9395-8.02062 57.9394 8.02105-2.95242e-05 8.02083ZM49.9187-24.0623 98.0436 0.000360892 49.9185 24.0627Z" fill="#000000" fill-rule="nonzero" fill-opacity="1" transform="matrix(-1 0 0 1 2007.04 715)"/><path d="M2383 1216.98 2922.21 1216.98 2922.21 1233.02 2383 1233.02ZM2914.19 1200.94 2994.4 1225 2914.19 1249.06Z" fill="#000000" fill-rule="nonzero" fill-opacity="1"/><path d="M1827.5 539.5 1967.25 539.5 1967.25 452.5 2246.75 452.5 2246.75 539.5 2386.5 539.5 2107 626.5Z" stroke="#172C51" stroke-width="4.58333" stroke-linecap="butt" stroke-linejoin="miter" stroke-miterlimit="8" stroke-opacity="1" fill="#000000" fill-rule="evenodd" fill-opacity="1"/><text fill="#6A8DBD" fill-opacity="1" font-family="Arial,Arial_MSFontService,sans-serif" font-style="normal" font-variant="normal" font-weight="700" font-stretch="normal" font-size="64" text-anchor="start" direction="ltr" writing-mode="lr-tb" unicode-bidi="normal" text-decoration="none" transform="matrix(1 0 0 1 1251.28 1557)">Epoch+1</text><text fill="#6A8DBD" fill-opacity="1" font-family="Arial,Arial_MSFontService,sans-serif" font-style="normal" font-variant="normal" font-weight="700" font-stretch="normal" font-size="64" text-anchor="start" direction="ltr" writing-mode="lr-tb" unicode-bidi="normal" text-decoration="none" transform="matrix(1 0 0 1 2516.73 1557)">Epoch+1</text><text fill="#6A8DBD" fill-opacity="1" font-family="Arial,Arial_MSFontService,sans-serif" font-style="normal" font-variant="normal" font-weight="700" font-stretch="normal" font-size="110" text-anchor="start" direction="ltr" writing-mode="lr-tb" unicode-bidi="normal" text-decoration="none" transform="matrix(1 0 0 1 890.846 791)">NeFT</text></g></g></svg>